<?xml version="1.0" encoding="UTF-8"?>
<svg width="20px" height="19px" viewBox="0 0 20 19" version="1.1" xmlns="http://www.w3.org/2000/svg" xmlns:xlink="http://www.w3.org/1999/xlink">
    <!-- Generator: Sketch 54.1 (76490) - https://sketchapp.com -->
    <title>instagram</title>
    <desc>Created with Sketch.</desc>
    <defs>
        <rect id="path-1" x="0" y="0" width="24" height="23"></rect>
    </defs>
    <g id="SPLASH" stroke="none" stroke-width="1" fill="none" fill-rule="evenodd">
        <g id="Artboard-Copy" transform="translate(-698.000000, -1821.000000)">
            <g id="instagram" transform="translate(696.000000, 1819.000000)">
                <mask id="mask-2" fill="white">
                    <use xlink:href="#path-1"></use>
                </mask>
                <g id="Mask"></g>
                <path d="M17.34,5.287 L17.34,5.287 C16.8546453,5.287 16.4170818,5.56475208 16.2313446,5.99074089 C16.0456074,6.41672969 16.1482743,6.90706402 16.4914719,7.23310173 C16.8346695,7.55913945 17.3508109,7.65667301 17.7992201,7.48022267 C18.2476294,7.30377233 18.54,6.88808696 18.54,6.427 C18.54,5.79739539 18.0027417,5.287 17.34,5.287 L17.34,5.287 Z M21.94,7.586 C21.9205523,6.79778332 21.7651564,6.01793285 21.48,5.2775 C21.2257319,4.64397597 20.8299857,4.07031455 20.32,3.596 C19.8248224,3.1090546 19.2195602,2.73546766 18.55,2.5035 C17.7726568,2.22435276 16.9508476,2.07334955 16.12,2.057 C15.06,2 14.72,2 12,2 C9.28,2 8.94,2 7.88,2.057 C7.0491524,2.07334955 6.22734319,2.22435276 5.45,2.5035 C4.78167657,2.73781614 4.17693385,3.11108248 3.68,3.596 C3.1674259,4.06641873 2.77417649,4.64141776 2.53,5.2775 C2.2361608,6.01597603 2.07721005,6.79669478 2.06,7.586 C2,8.593 2,8.916 2,11.5 C2,14.084 2,14.407 2.06,15.414 C2.07721005,16.2033052 2.2361608,16.984024 2.53,17.7225 C2.77417649,18.3585822 3.1674259,18.9335813 3.68,19.404 C4.17693385,19.8889175 4.78167657,20.2621839 5.45,20.4965 C6.22734319,20.7756472 7.0491524,20.9266505 7.88,20.943 C8.94,21 9.28,21 12,21 C14.72,21 15.06,21 16.12,20.943 C16.9508476,20.9266505 17.7726568,20.7756472 18.55,20.4965 C19.2195602,20.2645323 19.8248224,19.8909454 20.32,19.404 C20.8322421,18.9314514 21.2283368,18.3572848 21.48,17.7225 C21.7651564,16.9820672 21.9205523,16.2022167 21.94,15.414 C21.94,14.407 22,14.084 22,11.5 C22,8.916 22,8.593 21.94,7.586 Z M20.14,15.3 C20.1327193,15.9030326 20.0177534,16.5005172 19.8,17.067 C19.6403339,17.4804339 19.3838794,17.8540026 19.05,18.1595 C18.7256473,18.4734811 18.3332263,18.7166115 17.9,18.872 C17.3037024,19.0788657 16.6747712,19.1880834 16.04,19.195 C15.04,19.2425 14.67,19.252 12.04,19.252 C9.41,19.252 9.04,19.252 8.04,19.195 C7.38089075,19.206724 6.72459487,19.1103094 6.1,18.91 C5.68578174,18.7466737 5.31135593,18.5041479 5,18.1975 C4.66808857,17.892311 4.41484306,17.5184317 4.26,17.105 C4.01585619,16.5303948 3.88044356,15.9193453 3.86,15.3 C3.86,14.35 3.8,13.9985 3.8,11.5 C3.8,9.0015 3.8,8.65 3.86,7.7 C3.86448241,7.0835027 3.98295008,6.47254798 4.21,5.895 C4.38604705,5.4940156 4.65626495,5.13657546 5,4.85 C5.30381341,4.52335982 5.67928781,4.26394115 6.1,4.09 C6.70955109,3.88104154 7.35199731,3.77182568 8,3.767 C9,3.767 9.37,3.71 12,3.71 C14.63,3.71 15,3.71 16,3.767 C16.6347712,3.77391664 17.2637024,3.88313427 17.86,4.09 C18.3144297,4.25021986 18.7222936,4.51070436 19.05,4.85 C19.377702,5.14181946 19.6337617,5.49859609 19.8,5.895 C20.022253,6.47348701 20.1372887,7.0841909 20.14,7.7 C20.19,8.65 20.2,9.0015 20.2,11.5 C20.2,13.9985 20.19,14.35 20.14,15.3 Z M12,6.6265 C9.16808754,6.63174429 6.87632591,8.81600131 6.88000433,11.506321 C6.88368274,14.1966407 9.1814096,16.3752344 12.0133268,16.3734897 C14.8452441,16.371745 17.1399946,14.1903219 17.14,11.5 C17.1426727,10.2050428 16.6016759,8.96253093 15.6368696,8.04774816 C14.6720634,7.13296538 13.3631051,6.62143907 12,6.6265 Z M12,14.6635 C10.1608918,14.6635 8.67,13.2471528 8.67,11.5 C8.67,9.75284719 10.1608918,8.3365 12,8.3365 C13.8391082,8.3365 15.33,9.75284719 15.33,11.5 C15.33,12.3390124 14.9791617,13.143661 14.3546656,13.7369323 C13.7301694,14.3302036 12.8831709,14.6635 12,14.6635 Z" id="Shape" fill="#FFFFFF" fill-rule="nonzero" mask="url(#mask-2)"></path>
            </g>
        </g>
    </g>
</svg>